<svg height="2500" viewBox="3.05 -127.49 2050.75 2228.58" width="2173" xmlns="http://www.w3.org/2000/svg"><path d="m308.99 204.99c-305.94 332.48-231.8 952.07 165.53 1383.85 397.32 431.78 967.38 512.25 1273.33 179.78 305.95-332.48 232.01-952.1-165.31-1383.88-397.33-431.78-967.6-512.23-1273.55-179.75zm277.42 138.11c240.39-261.24 682.39-204.41 987.31 126.95s357.21 811.69 116.82 1072.93-682.51 204.54-987.43-126.82-357.09-811.82-116.7-1073.06z" fill="#26a9dd"/><g fill="#ff9739"><rect height="223.07" rx="39.47" width="223.07" x="1470.83" y="339.59"/><rect height="578.73" rx="102.39" width="578.73" y="653.7"/><rect height="364.47" rx="64.48" width="364.47" x="1611.44" y="1381.02"/></g></svg>